
        <svg xmlns:rdf="http://www.w3.org/1999/02/22-rdf-syntax-ns#" xmlns="http://www.w3.org/2000/svg" xmlns:cc="http://creativecommons.org/ns#" xmlns:xlink="http://www.w3.org/1999/xlink" xmlns:dc="http://purl.org/dc/elements/1.1/" x="0px" y="0px" width="328" height="501" viewBox="0 0 328 501" xml:space="preserve">
            <title>Generic tree: rainforest 2</title>
            <desc xmlns:ian_image_library="https://ian.umces.edu/media-library/">
                <ian_image_library:title>Generic tree: rainforest 2</ian_image_library:title>
                <ian_image_library:descr>Illustration of a generic rainforest tree</ian_image_library:descr>
                <ian_image_library:scene>
                    <ian_image_library:contains>trees, vines, tree, summer, foliage, rainforest, </ian_image_library:contains>
                    <ian_image_library:when>2011-01-18</ian_image_library:when>
                </ian_image_library:scene>
            </desc>
            <metadata id="metadata-iil-5e8578a21adcaf64a9f97d6e9bb9a0b1">
                <rdf:RDF>
                <cc:Work
                rdf:about="">
                <dc:format>image/svg+xml</dc:format>
                <dc:type
                rdf:resource="http://purl.org/dc/dcmitype/StillImage" />
                <cc:license
                rdf:resource="http://creativecommons.org/licenses/by-sa/3.0/" />
                <dc:title>Generic tree: rainforest 2</dc:title>
                <dc:date>2011-01-18</dc:date>
                <dc:creator>
                    <cc:Agent>
                        <dc:title>Dieter Tracey
Terrestrial Ecosystem Research Network Australia</dc:title>
                    </cc:Agent>
                </dc:creator>
                <dc:rights>
                <cc:Agent>
                    <dc:title>Dieter Tracey
Terrestrial Ecosystem Research Network Australia</dc:title>
                </cc:Agent>
                </dc:rights>
                <dc:publisher>
                <cc:Agent>
                    <dc:title>Integration and Application Network</dc:title>
                </cc:Agent>
                </dc:publisher>
                <dc:identifier>https://ian.umces.edu/media-library/generic-tree-rainforest-2/</dc:identifier>
                <dc:source>https://ian.umces.edu/media-library/generic-tree-rainforest-2/</dc:source>
                <dc:language>en-US</dc:language>
                <dc:subject>
                <rdf:Bag>
                    <rdf:li>trees, vines, tree, summer, foliage, rainforest, </rdf:li>
                </rdf:Bag>
                </dc:subject>
                <dc:coverage></dc:coverage>
                <dc:description>Illustration of a generic rainforest tree</dc:description>
                <dc:contributor>
                <cc:Agent>
                    <dc:title></dc:title>
                </cc:Agent>
                </dc:contributor>
            </cc:Work>
            <cc:License
                rdf:about="http://creativecommons.org/licenses/by-sa/3.0/">
                <cc:permits
                rdf:resource="http://creativecommons.org/ns#Reproduction" />
                <cc:permits
                rdf:resource="http://creativecommons.org/ns#Distribution" />
                <cc:requires
                rdf:resource="http://creativecommons.org/ns#Notice" />
                <cc:requires
                rdf:resource="http://creativecommons.org/ns#Attribution" />
                <cc:permits
                rdf:resource="http://creativecommons.org/ns#DerivativeWorks" />
                <cc:requires
                rdf:resource="http://creativecommons.org/ns#ShareAlike" />
            </cc:License>
            </rdf:RDF>
            </metadata>
            
<defs>
</defs>
<path fill="#B59979" stroke="#231F20" d="M180.543,203.633c8.882-4.586,16.534-10.429,21.845-11.242
	c5.302-0.754,15.973-19.542,23.345-20.896c7.42-1.354,31.451-16.872,31.451-16.872l11.097-19.542c0,0-37.565,28.597-44.59,29.564
	c-7.004,0.987-22.561,12.403-29.661,16.833c-7.14,4.412-22.29,7.082-22.29,7.082s-1.155-11.861,3.222-16.582
	c4.402-4.624,13.902-8.455,17.56-13.912c3.579-5.476,7.168-26.275,7.168-26.275s-9.567,15.266-13.457,19.426
	c-3.859,4.121-13.559,5.688-13.559,5.688s-4.788-12.306-3.98-23.431c0.822-11.184-5.355-38.504-5.355-38.504l-12.426,0.116
	c0,0-0.595,70.178-3.048,73.042c-2.394,2.844-7.526,7.217-7.415,9.674c0.31,2.477-1.316,6.985,0.102,11.048
	c1.465,4.063,5.166,8.785,6.399,12.345c1.229,3.618-1.18,11.067-1.18,11.067s-20.587-10.854-25.115-16.311
	c-4.363-5.437-24.718-41.871-24.718-41.871s21.651,43.147,24.631,47.366c2.936,4.237,24.045,19.117,24.045,19.117l-1.069,19.291
	c0,0-15.024-12.267-22.677-21.825c-7.469-9.578-81.434-55.705-81.434-55.705s71.488,55.608,74.55,57.233
	c2.356,1.2,4.305,4.915,5.8,6.927c3.342,4.508,6.501,9.133,9.655,13.776c3.12,4.527,6.153,9.113,9.162,13.699
	c0.963,1.471,2.332,3.058,2.99,4.683c2.36,5.708,0.513,15.382,0.532,21.535c0.02,8.339-0.261,16.679-0.89,24.998
	c-0.697,9.133,1.267,17.646,1.838,26.895c0.513,7.934-1.156,17.375,0.063,25.812c-3.115,9.906-1.979,24.554-4.475,33.435
	c-2.322,8.223-5.219,16.892-11.319,22.812c-1.703,1.626-3.638,3.058-5.882,4.199c-1.935,0.986-4.01,1.722-6.037,2.38
	c-4.271,1.374-8.45,4.334-12.547,6.23c-2.883,1.315-5.665,2.863-8.726,3.656c-2.995,0.735-6.434,0.948-9.094,2.632
	c-1.916,1.199-2.167,2.902-3.168,4.644c-1.016,1.761-2.511,3.076-3.048,5.108c-0.658,2.573-0.014,3.579-2.021,5.476
	c-2.612,2.515-4.102,6.018-5.791,9.017c-4.189,7.41-4.189,15.092-5.495,23.237c-0.377,2.419-1.403,4.992-1.394,7.43
	c0,2.148,0.363,4.121,0.111,6.347c-0.217,2.012,0.261,3.521,0.174,5.263c2.051,0.29,3.207,0.658,4.165-0.948
	c0.978-1.722,1.892-4.856,2.109-6.85c0.6-5.456,1.209-10.912,1.809-16.388c0.392-3.367,1.035-6.617,1.461-10.042
	c0.261-2.264,0.933-3.986,1.794-6.018c1.016-2.341,2.452-3.89,3.846-6.037c1.025-1.528,2.399-2.786,3.381-4.314
	c1.021-1.664,1.345-3.328,2.438-4.915c1.175-1.683,2.917-3.386,4.562-4.585c0.184-0.136,4.474-2.438,4.436-1.51
	c-0.846,14.028-2.075,28.056-2.946,42.103c0.436-2.07,1.118-4.159,1.379-5.127c1.605-6.771,3.091-13.68,2.849-20.626
	c-0.174-5.533-0.358-11.048,1.703-15.981c2.544-6.095,11.019-4.644,16.514-7.005c4.136-1.799,6.424-5.882,10.274-7.874
	c2.187-1.142,4.15-1.51,6.24-2.922c1.35-0.948,17.07-9.868,17.056-5.031c0,3.813-1.026,7.353-1.471,11.087
	c-0.513,4.237-0.813,8.475-1.146,12.731c-0.188,2.709,0.087,5.94-2.873,7.023c-2.757,1.025-5.838,0.039-7.004,3.444
	c-0.29,0.852-0.948,9.229-1.001,9.249c1.756-0.329,1.446-3.541,1.597-4.992c0.247-2.07,0.546-3.889,2.535-4.973
	c1.456-0.813,5.292-0.58,6.448,0.755c1.359,1.567-0.31,4.876,0.024,6.753c0.348,1.992,1.257,3.695,1.204,5.727
	c-0.087,2.419-0.667,4.856-0.943,7.256c-0.343,2.902,0.204,5.476,0.885,8.068c0.692,2.438,0.459,5.572,0.169,8.107
	c-0.271,2.418-0.667,4.837-0.808,7.256c-0.058,0.754-0.271,2.089-0.097,2.844c0.227,0.891,1.132,1.412,0.846,2.516
	c0.242-0.891,1.045-1.741,1.268-2.825c0.295-1.393,0.348-2.863,0.411-4.314c0.111-3.328,0.358-6.443,0.938-9.791
	c1.422-0.6,4.063-0.29,5.209,0.794c0.871,0.813,0.551,1.083,0.585,2.205c0.053,1.316,0.3,1.2,1.001,2.206
	c-0.392-2.554,0.871-5.243-1.872-6.868c-0.982-0.581-3.227-0.697-3.817-1.664c-0.455-0.697-0.01-2.864-0.034-3.754
	c-0.29-6.018,3.081-10.951,2.583-16.988c-0.261-3.096-1.369-13.041,3.217-12.964c1.47,0.02,3.168,0.29,4.527,0.697
	c2.854,0.851,7.333,1.044,9.728,2.767c3.241,2.303,1.964,4.74,1.775,8.126c-0.072,1.896,0.798,2.593,1.296,4.257
	c0.416,1.335-0.125,2.941,0.17,4.16c0.551-3.019,0.924-4.779,0.3-7.836c-0.522-2.593,1.189-5.998,0.46-8.475
	c-0.445-1.587-2.1-2.516-3.652-2.922c-1.805-0.484-3.57-0.948-5.335-1.413c-2.743-0.734-5.901-0.483-8.446-1.818
	c-4.562-2.477-0.813-9.752-0.029-13.408c1.394-6.347,1.732-12.906,1.742-19.407c-0.034,10.932,32.259-6.481,35.838-9.461
	l10.826,0.793c-0.01,1.509,8.3,4.354,8.329,5.843c-0.029-1.412,8.997,3.541,9.577,3.87c4.586,2.516,4.296,4.373,3.716,9.539
	c-0.368,3.348-0.31,6.114-0.059,9.268c0.465,5.65-2.187,11.223-1.625,16.737c0.677-6.23,2.747-11.029,3.135-17.453
	c0.212-3.851-0.368-7.895,0.754-11.647c1.684-5.767,5.892-3.696,10.797-4.412c0.02-2.438-2.457-3.946-4.257-5.843
	c-5.631,0-10.584-1.161-14.183-2.883c0.029-3.174-4.701-1.684-4.701-5.611c-1.8-0.02-7.431-5.495-9.21-7.004
	c-5.438,0-11.968,2.786-19.175,2.767c-1.79,1.528-5.631,3.56-7.43,3.56l-6.081,0.542c-7.188-1.335-3.352-10.525-4.01-11.454
	c-0.909-8.088,2.66-21.478,0.982-30.28c0.459-8.34-1.882-16.272-3.357-24.399c-1.263-7.12-0.223-13.234-0.174-20.412
	c0.111-12.307,2.09-25.482,0.546-37.537c-1.64-12.653-0.556-27.958,2.486-40.303C172.983,223.853,169.651,209.244,180.543,203.633z"
	/>
<path fill="#B59979" stroke="#231F20" d="M91.69,485.64c-0.232-0.251-0.396-0.6-0.493-0.986c-0.01,0.213-0.044,0.445-0.02,0.658
	C91.371,485.35,91.555,485.485,91.69,485.64z"/>
<path fill="#B59979" stroke="#231F20" d="M91.197,484.653c0.087-1.49,0.184-2.961,0.28-4.412
	C91.119,481.867,90.926,483.531,91.197,484.653z"/>
<path fill="#36602E" d="M246.048,114.01c4.383-1.742,8.388-13.467,11.232-13.893c2.729-0.503,3.463,8.262,7.12,7.294
	c3.677-0.929,6.23-10.545,10.448-9.616c4.218,0.967,6.85,8.185,11.329,7.294c4.575-0.832,10.719,7.991,9.374,10.487
	c-1.364,2.535-8.697,0.484-8.475,4.315c0.193,3.889,11.647,2.418,7.816,4.179c-3.928,1.78,3.628,14.628-1.257,13.757
	c-4.866-0.851-1.857,8.069-8.32,8.514c-6.714,0.503-1.122-12.538-4.431-12.596c-3.309-0.155-3.88,7.991-9.104,7.411
	c-5.312-0.483-0.997-8.591-5.775-9.423c-4.75-0.774-5.65,3.773-10.487,3.309c-4.876-0.464-7.004,6.25-11.319,4.276
	c-4.257-1.896-1.412-12.809,1.954-13.757C249.638,124.652,241.763,115.655,246.048,114.01z"/>
<path fill="#36602E" d="M320.319,147.29c-2.477-7.856-1.51-14.047-5.002-14.763c-3.589-0.677-4.604-2.728-6.434-2.032
	c-1.809,0.697-0.135,6.443-4.159,6.366c-4.122-0.019-0.368-9.848-5.147-9.5c-4.566,0.445-8.029-0.213-11.899,1.219
	c-3.831,1.451-4.701-3.56-8.552-3.115c-3.638,0.464,0.522,4.625-2.689,6.405c-3.251,1.741-5.282-0.232-9.133,1.122
	c-3.908,1.413,1.558,17.917-3.405,19.097c-4.905,1.2,0.483,10.932,4.354,10.525c3.812-0.445,2.747-8.262,6.23-8.571
	c3.463-0.232,6.646,5.34,10.699,8.417c4.141,3.057,7.701-8.107,9.868-3.289c2.157,4.837,6.075,2.864,10.681,6.269
	C310.257,168.767,322.776,155.126,320.319,147.29z"/>
<path fill="#36602E" d="M152.851,121.518c4.204,5.572,7.106,15.285,2.027,14.666c-5.142-0.677,2.854,12.519-5.558,9.113
	c-8.32-3.405-17.97,14.066-22.265,5.824c-4.247-8.359-8.688,13.621-14.749,9.113c-6.032-4.45-13.385,7.121-18.057,7.159
	c-4.644,0.058-1.95-6.985-6.124-6.211c-4.165,0.774-5.422,16.079-9.65,10.545c-4.208-5.553-9.214,2.187-14.922-4.024
	c-5.602-6.211,0.193,20.2-5.369,16.756c-5.674-3.424-11.711-2.67-15.885-1.954c-4.15,0.774-2.82-3.444-1.93-9.713
	c0.919-6.289-5.616-4.141-9.384-8.262c-3.725-4.179,5.084-2.128,7.425-4.972c2.269-2.767-8.006-9.636-5.272-15.247
	c2.704-5.611,7.899-4.295,11.595-1.49c3.778,2.709,3.154-13.97,5.417-11.222c2.457,2.767,3.773-3.521,8.436-0.774
	c4.639,2.748,4.421-19.542,8.688-14.744c4.208,4.856,12.054-0.116,14.386,4.024c2.414,4.199,8.005,2.786,12.194,7.584
	c4.228,4.799,5.471-13.989,10.134-9.848c4.716,4.141,16.321,2.631,17.752,7.488c1.451,4.876,11.464-18.207,13.355-15.44
	c1.814,2.787,6.497,3.425,8.465,8.262C145.431,122.988,148.58,116.003,152.851,121.518z"/>
<path fill="#557F3A" d="M0.751,148.876c-1.001-5.127-1.848-11.242,3.357-13.757c5.282-2.535,7.899-16.756,11.169-14.957
	c3.309,1.877,11.981-2.767,14.071-3.309c2.196-0.503,1.103-10.12,3.4-9.5c2.423,0.522,1.591,9.326,4.387,9.442
	c2.786,0.116,4.76,0.445,7.004-0.078c2.302-0.542,1.548-8.126,2.046-10.583c0.59-2.496,0.707-9.5-4.3-6.289
	c-4.891,3.154-9.249,1.742-12.016,0.097c-2.661-1.703-1.964-8.939-1.504-10.526c0.59-1.625,4.208,0.078,4.184-2.225
	c0.063-2.187-4.247-5.186-4.247-5.186s-1.112-8.126,0.629-8.533c1.741-0.368,3.618,3.928,6.395,3.173
	c2.801-0.755,6.719-1.451,8.422-0.116c1.809,1.374,0.75,10.777,2.273,11.648c1.582,0.793,4.213-0.039,4.213-0.039
	s2.399-3.792,3.493-4.276c1.238-0.483,1.306,2.554,4.276,2.07c3.019-0.58,0.286-3.057,2.825-3.231
	c2.462-0.097,4.629,1.49,6.308-0.058c1.727-1.529-0.837-4.934,0.653-7.411c1.437-2.477,6.327-0.058,6.327-0.058
	s1.717,2.535,3.57,4.199c1.833,1.645,0.595-0.271,3.531-0.02c3.019,0.194-2.549-12.383,1.331-12.692
	c3.86-0.31,7.449,3.87,7.125,6.23c-0.382,2.477,2.844,1.083,4.837-0.019c2.157-1.045-2.574-11.067,0.643-11.667
	c3.285-0.542,9.573,1.296,9.283,4.179c-0.382,2.902,7.009,0.581,9.877,2.032c2.801,1.374,2.481,7.063,5.036,8.417
	c2.477,1.354,6.54-0.697,8.45,2.031c1.925,2.67,7.619-0.542,9.931,5.224c2.288,5.747-20.529,47.076-22.792,48.855
	c-2.37,1.722-11.977-1.722-14.875-2.012c-2.83-0.29-3.923-11.745-5.751-12.654c-1.881-0.89,3.454,26.643,0.271,28.597
	c-3.231,1.916-13.08-1.838-15.518,1.2c-2.525,2.999-10.7-3.715-11.387-7.294c-0.629-3.618,2.951-7.778,4.237-7.43
	c1.156,0.251-0.348-2.554-0.063-6.424c0.204-3.753,7.222-1.219,7.648-4.276c0.392-3.038-6.714-3.928-8.489-3.038
	c-1.8,0.832-1.534-7.294-3.604-6.366c-2.002,1.025-2.254,2.67-4.16,4.295c-1.906,1.567-1.896-2.96-4.228-2.109
	c-2.384,0.929,0.048,9.829-3.391,10.661c-3.517,0.754-0.682,15.711-2.709,19.02c-2.065,3.367-5.108,3.019-8.499,2.245
	c-3.256-0.89,0.503-6.985-2.849-7.392c-3.304-0.425-7.58,3.367-9.829,3.251c-2.288-0.116-2.419,5.94-4.881,6.423
	c-2.501,0.484-2.375-4.121-4.987-4.218c-6.25,1.296-3.463,1.083-3.463,1.083s-3.468-3.696-5.751-3.115
	c-2.254,0.639-1.437,8.049-3.396,8.514C7.301,151.392,1.767,153.965,0.751,148.876z"/>
<path fill="#6A9644" d="M9.032,156.558c-3.347,1.49-7.41,10.835-2.747,14.801c4.667,4.083,6.985,15.015,10.022,13.699
	c3.149-1.374,14.589,13.176,17.771,9.307c3.082-3.87,18.082-12.074,18.841-18.13c0.76-6.095-14.366-12.131-17.012-10.467
	c-2.738,1.78-4.015-8.069-5.756-7.314c-1.673,0.793-0.174,8.552-3.439,9.578c-3.183,0.967-8.586,1.219-10.555,1.142
	C14.199,169.096,12.269,155.049,9.032,156.558z"/>
<path fill="#57853C" d="M66.416,201.021c-2.08-2.341-2.936-15.015-3.062-18.227c-0.174-4.972,4.02-2.128,6.341-3.231
	c2.375-1.142-2.859-1.083-2.177-6.327c0.639-5.205,7.381-4.74,9.854-4.295c2.433,0.348,2.781,5.205,5.703,5.205
	c2.873-0.02-2.037-11.474,1.954-13.776c4.01-2.303,6.462,0.097,9.892-0.078c3.4-0.213,2.181-8.397,4.15-7.41
	c1.974,0.909,0.982,1.78,4.905-0.058c4.015-1.896-7.575-10.178-10.647-10.526c-3.071-0.232-4.073-10.39-3.681-13.718
	c0.459-3.289,0.546-4.489,3.507-4.276c2.984,0.232,10.24-2.418,10.55-0.097c0.387,2.38,7.057,10.332,9.234,8.417
	c2.273-1.974-4.291-8.068-4.314-10.526c-0.024-2.554,1.495-6.075,4.165-6.462c2.786-0.329,9.22-3.831,10.671-0.097
	c1.393,3.851,10.438,5.398,10.632,10.545c0.179,5.089-0.619,12.558-4.857,11.667c-4.208-0.948-3.265,10.274-6.211,10.623
	c-2.965,0.368-7.928-0.968-9.214,0.097c-1.209,0.967-2.835,7.584,0.087,8.475c2.956,0.852,9.848-5.94,10.574-1.18
	c0.779,4.76,3.652,4.354,6.463,4.179c2.704-0.193,0.459-9.849,4.121-9.578c3.57,0.251,8.276,8.281,7.154,10.506
	c-1.05,2.225,1.262,12.731,0.14,14.802c-1.021,2.09-5.63,0.135-7.778,1.142c-2.147,1.045-2.568-1.819-5.601-2.051
	c-3.086-0.291-5.573-3.057-7.096,0.058c-3.42,6.927-4.465,17.278-13.447,8.397c-1.108-1.122-5.703-11.067-3.551-12.441
	c-2.776,1.761-7.188,0.387-8.407,2.206c-1.209,1.722,2.288,3.851,4.924,4.141c2.637,0.29-3.357,16.156,0.174,16.911
	c3.58,0.832-5.602-2.109-6.317,0.058c-0.764,2.264,1.785,8.456,0.097,9.578c-1.683,1.025-8.368-3.096-10.617,0.097
	c-1.466,2.012-4.185-1.974-4.794-3.25C82.132,204.93,68.549,203.556,66.416,201.021z"/>
<path fill="#6A9644" d="M24.328,146.284c1.664,1.896,6.743-7.759,10.448-8.629c3.7-0.755-0.396-6.366,1.345-8.436
	c1.746-2.032,10.177,1.993,12.025,3.076c1.901,1.006,7.193-4.005,11.285-3.289c4.048,0.677,11.614,9.229,10.7,13.622
	c-0.871,4.411-11.817,14.125-15.402,12.847c-3.584-1.296-6.332,13.563-9.718,13.873c-3.43,0.271-4.237-2.535-5.737-6.366
	c-1.591-3.792-11.43-7.255-11.43-7.255s-6.129-0.078-6.985-3.096C20.003,149.631,22.605,144.33,24.328,146.284z"/>
<path fill="#6A9644" d="M66.188,66.18c1.48,5.843,8.136,1.742,10.564,0.987c2.438-0.851-0.585-7.778,1.34-7.43
	c2.017,0.348,6.128-1.161,7.778-0.078c1.669,1.006-0.13,4.779,2.907,8.397c3.072,3.695,14.154-3.154,16.272-0.135
	c2.094,3.038-2.651,2.708-4.141,6.346c-1.587,3.715-3.526,9.926,0.696,11.667c4.339,1.761,3.425,8.92,5.776,9.481
	c2.375,0.561,6.801,2.767,9.94-0.077c3.033-2.941-1.833-11.319,1.282-10.623c3.105,0.716,7.788-3.638,11.285-1.2
	c3.463,2.535,4.039-14.705,7.604-14.821c3.575-0.136-4.75-22.039-1.63-22.251c3.154-0.155-1.49-11.899-4.339-12.577
	c-2.844-0.716-2.815,2.902-5.587,4.237c-2.868,1.315-10.119,0.754-11.387-1.993c-1.151-2.825,8.891-5.205,9.195-11.725
	c0.131-6.598-3.424-11.783-7.192-10.506c-3.899,1.258-4.286-6.985-6.487-6.308c-2.104,0.696-1.118,3.057-3.454,7.449
	c-2.298,4.431-3.851,0.6-7.009,1.122c-3.154,0.542-0.135,4.547-3.502,7.43c-3.318,2.921-6.143-2.787-8.456,0.058
	c-2.269,2.902-9.964-2.728-11.319,0.116c-1.175,2.883-0.406,5.011,2.278,7.391c2.622,2.458,8.692,0.291,11.217,1.006
	c2.573,0.619,3.643,4.992,1.548,8.397c-2.157,3.424-4.116,0.929-7.769,2.186c-3.647,1.316,5.2,6.56,2.196,7.411
	c-2.989,0.852-7.42,0.6-9.892,1.142c-2.385,0.484-2.051,5.282-2.051,5.282S64.684,60.317,66.188,66.18z"/>
<path fill="#36602E" d="M122.614,65.639c-2.917-1.083-6.893-8.785-2.181-9.52c4.707-0.697,9.568-4.295,12.683-0.116
	c3.246,4.16,6.801-7.855,10.516-4.315c3.86,3.541,2.883-12.209,6.298-10.583c3.478,1.509,7.411-9.52,9.084-6.443
	c1.727,3.038,8.872,2.419,12.04,3.019c3.212,0.6-3.604,3.057-1.315,7.43c2.288,4.295,5.892,6.289,9.258,10.448
	c3.405,4.18-5.194,6.637-2.708,12.771c2.534,6.114-11.15-2.012-14.826-4.083c-3.686-2.148-3.439,5.069-7.706,5.301
	c-4.305,0.31-4.741,1.974-8.485,2.187c-3.715,0.271-0.493,7.023-4.793,8.552c-4.368,1.509-2.399-2.941-6.414-2.013
	c-4.044,0.832-0.754-6.694-2.931-9.52C128.994,65.852,125.662,66.703,122.614,65.639z"/>
<path fill="#4B7B39" d="M157.011,2.407c-2.806-0.755-13.07-1.838-16.993,0.174c-3.879,1.993,2.172,10.1-1.272,10.603
	c-3.42,0.464-7.962,6.579-10.623,1.103c-2.661-5.398-7.807,2.225-7.72,5.379c0.078,3.212,6.327,9.636,8.639,12.635
	c2.308,3.019-5.146,3.463-4.141,7.43c0.91,3.967,3.841,1.025,6.404,5.205c2.472,4.295-5.708,10.777-2.757,13.776
	c3.062,3.076,8.968,1.741,12.731-0.136c3.739-1.799-2.511-14.492,1.287-14.763c3.705-0.31,7.647,0.136,11.266-1.199
	c3.594-1.258-2.264-10.797,1.988-11.648c4.295-0.832,5.18-12.731,10.448-11.726c5.336,1.025,7.735-8.436,4.861-11.706
	c-2.921-3.27-6.573,2.07-9.829,2.225C158.046,9.953,159.681,3.181,157.011,2.407z"/>
<path fill="#629740" d="M194.552,1.266c3.464-2.399,6.598-0.697,8.397-0.445c3.251,0.445-3.261,11.029-0.619,12.654
	c2.65,1.625,4.092,1.161,6.443,4.16c2.264,3.077,3.928-2.477,8.416-2.206c4.586,0.329-1.625,7.624,0.078,9.52
	c1.818,1.935,16.939,2.245,21.303,4.024c4.285,1.896,6.462,8.088,3.56,10.584c-2.999,2.418-11.764-1.625-15.498,0.174
	c-3.782,1.761,0.483,8.223-3.435,10.564c-3.859,2.322-6.472,1.935-9.2-0.929c-2.689-2.902-3.019,0.89-5.553,4.276
	c-2.593,3.309-4.566,0.174-7.102,0.039c-2.467-0.136-3.153,5.901-5.592,7.488c-2.389,1.509-6.036,0.619-8.503-1.025
	c-2.313-1.625-0.552-4.818-2.874-8.436c-2.331-3.541-4.024-6.23-7.797-6.289c-3.855,0.02-2.801,4.412-6.366,5.379
	c-3.458,0.948-10.607-13.002-7.096-14.724c3.463-1.741,1.543-15.363,4.77-14.86c3.183,0.522,4.334-3.521,6.303-4.257
	c1.974-0.851,1.476,5.012,6.355,4.141c4.992-0.967-0.696-11.319,5.485-11.687C188.921,9.198,191.833,3.22,194.552,1.266z"/>
<path fill="#5A823A" d="M272.934,61.014c2.418,2.748-1.587,5.127-4.876,7.449c-3.271,2.36-10.042-5.766-11.28-3.019
	c-1.384,2.67-4.992-4.16-7.837-2.031c-2.786,2.051,0.601,2.283-0.638,6.327c-1.277,4.025-4.044,0.213-6.386,3.154
	c-2.264,3.057,3.831,8.514,0.097,11.706c-3.637,3.192-7.623,4.741-11.909,7.488c-4.188,2.787,2.584,16.369-2.621,13.757
	c-5.234-2.554-7.207,7.778-12.674,4.392c-5.543-3.348-10.129,9.249-15.439,8.629c-5.302-0.697-8.204-16.969-12.848-14.724
	c-4.653,2.341-5.921-10.777-12.771-8.301c-6.796,2.36-6.327,8.378-9.118,9.597c-2.723,1.239-6.38-7.488-11.261-3.096
	c-4.987,4.45-4.62-6.675-7.198-12.577c-2.631-5.92,3.405-7.72-0.866-13.718c-4.242-6.114,1.901-11.009,5.504-13.854
	c3.681-2.825,6.022,7.836,11.382,8.359c5.417,0.522,2.661-10.545,8.388-9.597c5.741,0.948,9.94,5.302,14.158,5.186
	c4.208-0.135,4.382-6.482,9.151-6.501c4.702-0.058,2.429,5.108,8.476,6.327c6.095,1.142,5.727-9.307,9.81-10.719
	c4.005-1.374,6.704-10.603,9.81-7.468c3.057,3.134-1.016,6.83,1.471,10.545c2.612,3.753,6.095,4.644,8.562,4.16
	c2.467-0.445-3.009-8.92,0.59-10.604c3.6-1.664,2.177,3.057,7.798-0.077c5.572-3.115,1.828-11.841,5.495-11.648
	c3.657,0.155,0.677,6.25,5.011,7.333c4.306,1.103,5.205,0.194,8.514,0.987c3.222,0.793-0.483,5.688,2.109,8.397
	C264.13,59.698,270.458,58.267,272.934,61.014z"/>
<path fill="#58853C" d="M292.283,89.379c3.744,0.696,4.401-8.649,2.611-12.673c-1.779-4.102-7.294-6.424-9.848-4.199
	c-2.555,2.302-7.372,6.385-11.31,6.501c-3.744,0.155-2.332-5.088-5.621-4.141c-3.27,0.852-1.412,6.327-5.572,9.52
	c-4.198,3.212-5.882,0.387-12.731,1.18c-6.781,0.793-5.012-7.101-9.143-7.313c-4.188-0.155-3.966,9.539-11.251,9.636
	c-7.313,0.077-0.561,12.267-1.935,17.956c-1.412,5.785-4.257-6.269-8.475-0.91c-4.199,5.302-9.801-9.616-12.731-5.205
	c-3.077,4.431-5.94,3.541-7.023,8.533c-1.045,5.011-12.219,5.863-14.009,10.719c-1.78,4.895-10.632-5.476-15.493-0.948
	c-4.948,4.644-9.123,12.731-9.757,17.046c-0.566,4.295,5.505,7.101,5.862,14.782c0.252,7.604,12.325,16.292,17.037,14.647
	c4.595-1.664-4.44-21.806-0.175-18.014c4.247,3.812,11.929-1.819,15.527,0.948c3.561,2.728,3.967-15.672,9.075-10.7
	c5.079,4.915,19.658,1.161,24.728,2.902c5.03,1.8,0.416-16.079,3.366-13.757c2.883,2.303,9.036-5.263,12.731-3.289
	c3.599,1.993,2.419-6.443,6.173-7.488c3.928-1.044,2.477,1.78,6.414,2.051c3.966,0.329,1.132-15.963,6.298-12.712
	c5.069,3.231,12.963-5.611,16.794-4.412c3.967,1.2,1.723-4.257-0.058-8.475c-1.703-4.199-2.206,0.135-5.592,0.058
	c-3.482,0.039-2.612-5.611,2.051-6.327C284.891,84.6,288.393,88.779,292.283,89.379z"/>
<path fill="#57853C" d="M325.591,107.064c3.086-5.476,0.803-12.151-3.647-9.481c-4.392,2.651-4.218-19.078-9.249-18.923
	c-5.146,0.135-4.469,11.357-9.151,11.706c-4.663,0.329-1.828,9.055-5.572,10.583c-3.638,1.606-7.023,5.379-11.261,1.238
	c-4.267-4.237-12.045,3.754-14.105,0.116c-2.051-3.696-6.637-2.535-9.172-1.006c-2.554,1.587-3.908,12.731-1.973,12.693
	c1.818,0.039,5.736,7.14,3.56,9.5c-2.09,2.36-10.216,6.907-13.351,2.225c-3.153-4.586-2.457,10.525-5.592,9.635
	c-3.037-0.909-15.557-4.721-19.068-8.339c-3.608-3.541-7.884,5.205-11.271,5.437c-3.443,0.155-7.159-7.197-12.063-6.25
	c-4.905,0.948-4.924,14.918-6.907,19.155c-1.945,4.141-6.453,9.19-10.497,4.315c-4.024-4.915-4.508,2.244-7.014,4.295
	c-2.506,2.031-1.567,13.641,0.822,14.782c2.399,1.064,17.472-3.328,21.013-2.264c3.628,1.064,0.6,10.971,5.949,13.641
	c5.234,2.651,10.846-1.354,15.509,2.999c4.721,4.354,6.771-12.441,14.008-11.764c7.217,0.658-2.699-9.403-0.154-14.744
	c2.593-5.437,6.269-12.286,10.545-6.521c4.179,5.824,9.374,13.177,13.582,13.66c4.122,0.368,11.822-9.964,16.108-13.931
	c4.15-3.909-4.034-8.958-4.479-15.808c-0.406-6.869,2.283-10.835,5.602-8.533c3.338,2.303,5.853,7.584,10.622,8.359
	c4.856,0.793,6.076-16.543,11.136-13.854c5.263,2.709,12.586,3.502,16.988,3.019c4.488-0.464-3.009-8.088,0.716-9.52
	C320.879,112.114,322.457,112.578,325.591,107.064z"/>
<path fill="#427035" d="M183.311,49.947c4.334,3.154,15.111-9.868,18.227-7.604c3.24,2.264,3.443-13.699,6.965-10.681
	c3.608,3.077,15.015-6.017,16.94-1.18c1.964,4.837,6.646,0.793,6.433,6.25c-0.174,5.495-12.519,3.231-10.496,9.636
	c2.041,6.404,5.679,4.876,7.197,9.461c1.461,4.566-1.073,9.616-5.602,8.514c-4.508-1.083-10.129,4.721-14.163,0.135
	c-3.889-4.566-4.063,9.075-7.643,8.552c-3.618-0.561-1.625-3.096-3.599-6.289c-1.857-3.27-6.676,5.379-11.261,0.116
	c-4.644-5.263-16.248,6.114-17.632,1.18c-1.427-4.992,5.544-10.042,5.5-13.795c-0.044-3.812-8.987-2.573-4.963-6.269
	C173.177,44.2,178.977,46.735,183.311,49.947z"/>
<path fill="#4B7B39" d="M100.721,130.379c4.658-0.929,0.846-12.692,4.078-12.731c3.26-0.019,1.974,2.07,5.64-0.058
	c3.633-2.148-0.968-10.023,2.065-10.623c2.878-0.581,3.178-0.135,6.298-0.078c3.135,0.155,2.423-13.679,5.616-11.647
	c2.999,1.954,6.811-5.592,8.436-0.078c1.558,5.457,4.363,10.738,9.931,10.487c5.601-0.271,7.604-11.241,11.943-8.629
	c4.31,2.709,10.453-3.405,13.94,2.418c3.444,5.688,7.87,0.484,10.134,5.882c2.148,5.282,12.519-3.541,14.086-2.245
	c1.577,1.161,6.095,18.729,2.999,20.026c-3.115,1.393-6.327,4.992-9.19,0.078s-10.062-4.199-13.477-8.339
	c-3.396-4.122-3.222,13.641-6.206,14.917c-2.989,1.258-6.443-4.76-8.499-3.134c-2.046,1.703,9.694,6.908,7.841,10.506
	c-1.8,3.599-5.665,10.526-9.084,6.404c-3.376-4.083-9.912-0.909-13.472-5.127c-3.575-4.199-0.842,6.733-5.567,6.424
	c-4.77-0.329-9.292,16.001-12.635,12.848c-3.227-3.27-12.77,9.732-14.028,4.334c-1.219-5.398-7.827-6.327-7.846-10.545
	c-0.067-4.199-7.725-5.959-5.04-8.378C101.316,140.692,95.903,131.25,100.721,130.379z"/>
<path fill="#6A9644" d="M118.203,120.627c2.472,3.831,5.195-3.889,7.769-3.173c2.563,0.658,1.345,7.121,4.31,7.314
	c2.985,0.29,4.552-8.126,9.781-7.449c5.234,0.638,11.3,5.65,7.89,9.403c-3.541,3.792-3.986,15.382-7.677,11.726
	c-3.652-3.696-4.982-3.947-8.513-4.16c-3.575-0.135-3.488,9.442-8.422,6.443c-4.875-3.018-8.876-4.76-10.598-7.313
	C110.966,130.824,115.793,116.893,118.203,120.627z"/>
</svg>
